<svg xmlns="http://www.w3.org/2000/svg" viewBox="0 0 485 485"><path d="M90.564 236.876l72.583 27.089 28.094 90.351c1.798 5.784 8.874 7.923 13.569 4.083l40.46-32.981a12.066 12.066 0 0 1 14.712-.412l72.975 52.981c5.023 3.65 12.142.899 13.401-5.172l53.458-257.136c1.375-6.632-5.139-12.164-11.454-9.721L90.48 220.873c-7.352 2.833-7.289 13.241.084 16.003zm96.149 12.67l141.854-87.367c2.548-1.565 5.172 1.882 2.981 3.913L214.479 274.913a24.262 24.262 0 0 0-7.522 14.522l-3.986 29.553c-.531 3.945-6.071 4.335-7.162.517l-15.337-53.891c-1.755-6.146.804-12.713 6.241-16.068z"/></svg>