<svg xmlns="http://www.w3.org/2000/svg" viewBox="0 0 485 485"><path d="M124.536 347.92c39.056 4.353 78.587 4.382 117.948 4.353 39.377.029 78.909 0 117.952-4.353 16.494-1.841 30.195-14.21 34.057-30.96 5.491-23.846 5.507-49.9 5.507-74.462 0-24.562.049-50.603-5.446-74.45-3.857-16.766-17.559-29.118-34.057-30.959-39.056-4.365-78.591-4.382-117.948-4.365-39.361-.016-78.909 0-117.969 4.365-16.477 1.841-30.183 14.193-34.024 30.959C85.065 191.896 85 217.937 85 242.499c0 24.562 0 50.615 5.495 74.462 3.841 16.75 17.543 29.118 34.041 30.959zm77.319-160.69c33.374 17.416 66.54 34.707 100.138 52.237-33.5 17.368-66.67 34.577-100.138 51.932V187.23z"/></svg>